<svg version="1.1" xmlns="http://www.w3.org/2000/svg" xmlns:xlink="http://www.w3.org/1999/xlink" width="63.99212" height="53.33753" viewBox="0,0,63.99212,53.33753"><defs><linearGradient x1="233.94015" y1="168.7359" x2="248.31799" y2="183.11374" gradientUnits="userSpaceOnUse" id="color-1"><stop offset="0" stop-color="#e1da93"/><stop offset="1" stop-color="#beb77b"/></linearGradient><linearGradient x1="263.55628" y1="146.45737" x2="273.62563" y2="156.52673" gradientUnits="userSpaceOnUse" id="color-2"><stop offset="0" stop-color="#c3734e"/><stop offset="1" stop-color="#8c5338"/></linearGradient><linearGradient x1="244.70518" y1="164.84723" x2="255.01971" y2="175.16176" gradientUnits="userSpaceOnUse" id="color-3"><stop offset="0" stop-color="#c2c2c2"/><stop offset="1" stop-color="#8e8e8e"/></linearGradient></defs><g transform="translate(-223.62238,-132.91502)"><g data-paper-data="{&quot;isPaintingLayer&quot;:true}" fill-rule="nonzero" stroke-linejoin="miter" stroke-miterlimit="10" stroke-dasharray="" stroke-dashoffset="0" style="mix-blend-mode: normal"><path d="M248.22022,183.21151c-1.98669,1.98669 -6.3576,3.22545 -12.08783,0.32792c-6.47235,-3.27279 -9.71462,-7.28113 -9.71462,-7.28113c0,0 2.54344,0.74911 5.18642,0.77631c4.316,0.04442 4.63099,-3.71737 7.32629,-6.41267c4.23068,-4.23068 8.21674,-3.80408 11.32395,-0.69686c3.10722,3.10722 2.19647,9.05575 -2.03421,13.28643z" fill="url(#color-1)" stroke="#706c49" stroke-width="2" stroke-linecap="butt"/><path d="M247.88389,176.79279c0,0 -1.21791,0.88868 -2.19388,1.93962c-0.48568,0.523 -1.1477,1.79274 -1.5655,2.07473c-1.30513,0.8809 -3.9334,1.17792 -3.9334,1.17792" fill="none" stroke="#9d9766" stroke-width="1" stroke-linecap="round"/><path d="M245.15111,173.27433c0,0 -1.13342,0.73285 -2.51432,2.17949c-0.91602,0.95962 -2.02988,2.67233 -2.67258,3.10698c-1.60682,1.08667 -4.46835,1.24317 -4.46835,1.24317" fill="none" stroke="#9d9766" stroke-width="1" stroke-linecap="round"/><path d="M246.74452,164.05814c0,0 5.23122,-6.71696 12.75418,-13.13379c10.53262,-8.98397 23.71944,-19.21766 26.34679,-16.59031c3.98322,3.98322 -8.31375,18.33538 -18.34807,28.32005c-6.0361,6.00625 -11.4529,10.23264 -11.4529,10.23264z" fill="url(#color-2)" stroke="#502f20" stroke-width="2" stroke-linecap="butt"/><path d="M240.93394,168.61846l7.54247,-7.54247l10.31453,10.31453l-7.54247,7.54247z" fill="url(#color-3)" stroke="#373737" stroke-width="2" stroke-linecap="butt"/></g></g></svg>